<?xml version="1.0" standalone="no"?>
<!DOCTYPE svg PUBLIC "-//W3C//DTD SVG 20010904//EN"
 "http://www.w3.org/TR/2001/REC-SVG-20010904/DTD/svg10.dtd">
<svg version="1.0" xmlns="http://www.w3.org/2000/svg"
 width="385.000000pt" height="385.000000pt" viewBox="0 0 385.000000 385.000000"
 preserveAspectRatio="xMidYMid meet">
<metadata>
Created by potrace 1.11, written by Peter Selinger 2001-2013
</metadata>
<g transform="translate(0.000000,385.000000) scale(0.100000,-0.100000)"
fill="#000000" stroke="none">
<path d="M1439 2524 c-266 -334 -489 -612 -494 -618 -6 -6 -71 -87 -145 -181
-74 -93 -155 -195 -180 -226 -25 -31 -58 -74 -75 -95 -16 -20 -34 -42 -40 -48
-5 -6 -22 -27 -36 -46 -15 -19 -36 -46 -48 -60 -29 -35 -28 -34 -111 -140 -85
-108 -101 -128 -115 -144 -6 -6 -26 -31 -45 -56 -19 -25 -40 -51 -47 -58 -7
-7 -33 -40 -59 -73 l-45 -59 683 1 c678 0 684 1 760 23 189 56 331 200 418
426 l21 55 -42 -44 c-95 -98 -211 -150 -344 -156 -236 -11 -409 173 -371 395
15 88 86 181 192 253 22 15 49 35 60 45 10 9 55 47 100 84 110 91 259 248 328
346 60 86 128 220 119 236 -4 5 -1 6 5 2 7 -4 12 -14 12 -22 0 -22 62 -143
106 -205 106 -155 298 -340 522 -506 123 -91 173 -183 168 -308 -4 -84 -28
-143 -85 -207 -111 -125 -304 -150 -486 -63 -64 31 -175 123 -175 146 0 5 -4
9 -10 9 -5 0 6 -37 25 -82 98 -231 220 -347 440 -416 11 -4 332 -8 714 -9 665
-3 694 -3 679 14 -8 10 -185 232 -394 493 -208 261 -592 743 -854 1070 -261
327 -484 607 -495 621 -31 41 -137 172 -156 192 -15 17 -44 -17 -500 -589z"/>
<path d="M800 2253 c0 -364 2 -425 14 -413 7 8 80 98 161 200 80 102 154 194
163 205 9 11 41 50 70 86 l52 67 0 141 0 141 -230 0 -230 0 0 -427z"/>
</g>
</svg>
